<svg xmlns="http://www.w3.org/2000/svg" width="40.235" height="44.372" viewBox="0 0 40.235 44.372">
  <g id="Home" transform="translate(-9 0)">
    <g id="Path_189" data-name="Path 189">
      <path id="Path_1064" data-name="Path 1064" d="M14.637,44.372A5.644,5.644,0,0,1,9,38.735V15.98A1.5,1.5,0,0,1,9.579,14.8L28.2.316a1.5,1.5,0,0,1,1.842,0L48.656,14.8a1.5,1.5,0,0,1,.579,1.184V38.735A5.644,5.644,0,0,1,43.6,44.372ZM12,16.713V38.735a2.64,2.64,0,0,0,2.637,2.637H43.6a2.641,2.641,0,0,0,2.635-2.637V16.714L29.117,3.4Z" fill="#1b354b"/>
    </g>
    <g id="Path_190" data-name="Path 190">
      <path id="Path_1065" data-name="Path 1065" d="M35.324,44.372a1.5,1.5,0,0,1-1.5-1.5V23.686H24.412V42.872a1.5,1.5,0,0,1-3,0V22.186a1.5,1.5,0,0,1,1.5-1.5H35.324a1.5,1.5,0,0,1,1.5,1.5V42.872A1.5,1.5,0,0,1,35.324,44.372Z" fill="#1b354b"/>
    </g>
  </g>
</svg>
