<svg id="Icon_feather-user" data-name="Icon feather-user" xmlns="http://www.w3.org/2000/svg" width="85.866" height="95.406" viewBox="0 0 85.866 95.406">
  <path id="Path_230" data-name="Path 230" d="M85.6,59.163a4.77,4.77,0,0,1-4.77-4.77V44.852A14.327,14.327,0,0,0,66.514,30.541H28.352A14.311,14.311,0,0,0,14.041,44.852v9.541a4.77,4.77,0,1,1-9.541,0V44.852A23.852,23.852,0,0,1,28.352,21H66.514A23.879,23.879,0,0,1,90.366,44.852v9.541A4.77,4.77,0,0,1,85.6,59.163Z" transform="translate(-4.5 36.244)" fill="#7dd0d6"/>
  <path id="Path_231" data-name="Path 231" d="M34.352,3A23.852,23.852,0,1,1,10.5,26.852,23.879,23.879,0,0,1,34.352,3Zm0,38.163A14.311,14.311,0,1,0,20.041,26.852,14.327,14.327,0,0,0,34.352,41.163Z" transform="translate(8.581 -3)" fill="#7dd0d6"/>
</svg>
