<?xml version="1.0" standalone="no"?>
<!DOCTYPE svg PUBLIC "-//W3C//DTD SVG 20010904//EN"
 "http://www.w3.org/TR/2001/REC-SVG-20010904/DTD/svg10.dtd">
<svg version="1.0" xmlns="http://www.w3.org/2000/svg"
 width="348.000000pt" height="348.000000pt" viewBox="0 0 348.000000 348.000000"
 preserveAspectRatio="xMidYMid meet">
<metadata>
Created by potrace 1.16, written by Peter Selinger 2001-2019
</metadata>
<g transform="translate(0.000000,348.000000) scale(0.100000,-0.100000)"
fill="#000000" stroke="none">
<path d="M1375 3466 c-44 -19 -93 -79 -100 -123 -16 -93 -39 -113 -131 -113
-109 0 -169 -52 -169 -147 0 -56 18 -90 69 -127 27 -20 39 -21 394 -21 334 0
370 2 400 18 96 53 96 198 0 257 -24 15 -51 20 -99 20 -87 0 -112 18 -127 95
-7 31 -21 70 -33 87 -41 58 -137 83 -204 54z m100 -92 c28 -11 46 -59 35 -90
-21 -55 -69 -69 -114 -33 -65 51 -1 153 79 123z"/>
<path d="M405 3098 c-20 -17 -46 -50 -58 -72 l-22 -41 -3 -1190 c-2 -655 0
-1218 3 -1252 7 -72 38 -126 93 -163 l37 -25 657 -3 c362 -1 658 -1 658 2 0 2
-7 23 -15 47 -9 24 -22 78 -29 119 l-12 75 -572 3 -572 2 0 995 0 995 870 0
870 0 0 -586 0 -586 28 6 c15 3 71 9 125 13 l97 6 -2 778 -3 777 -31 39 c-17
21 -51 49 -75 63 -42 24 -52 25 -241 28 l-198 4 0 -54 c0 -113 -83 -215 -195
-238 -37 -8 -170 -10 -407 -8 l-353 3 -53 29 c-84 47 -132 128 -132 222 l0 44
-215 0 -214 0 -36 -32z"/>
<path d="M1036 2408 c-23 -24 -63 -67 -88 -96 l-47 -53 -47 35 c-49 38 -72 44
-92 24 -28 -28 -13 -56 59 -112 39 -31 77 -56 84 -56 19 0 43 23 139 133 90
102 104 136 67 157 -28 15 -30 14 -75 -32z"/>
<path d="M1242 2324 c-17 -12 -22 -25 -22 -63 0 -26 5 -52 12 -59 17 -17 849
-17 866 0 7 7 12 33 12 59 0 82 15 79 -445 79 -346 0 -404 -2 -423 -16z"/>
<path d="M984 1910 c-43 -49 -80 -90 -83 -90 -4 0 -26 16 -50 35 -46 37 -69
43 -89 23 -27 -27 -13 -56 57 -113 37 -30 77 -55 89 -55 23 0 222 218 222 243
0 32 -13 47 -40 47 -22 0 -42 -17 -106 -90z"/>
<path d="M1236 1874 c-10 -9 -16 -33 -16 -59 0 -79 -21 -75 445 -75 466 0 445
-4 445 75 0 79 21 75 -445 75 -363 0 -416 -2 -429 -16z"/>
<path d="M1021 1528 c-26 -29 -64 -71 -84 -93 -27 -30 -39 -38 -50 -30 -91 65
-95 67 -117 55 -15 -8 -20 -19 -18 -38 4 -33 118 -132 153 -132 18 0 48 27
125 112 98 110 114 140 88 166 -23 23 -49 12 -97 -40z"/>
<path d="M1236 1474 c-10 -9 -16 -33 -16 -59 0 -76 2 -76 334 -73 242 3 288 5
296 18 14 21 12 104 -2 118 -9 9 -90 12 -304 12 -253 0 -295 -2 -308 -16z"/>
<path d="M2383 1280 c-64 -14 -173 -59 -230 -97 -70 -46 -164 -148 -207 -226
-71 -126 -96 -317 -61 -466 41 -171 176 -341 335 -418 193 -95 387 -95 580 0
104 51 218 158 273 257 71 129 98 307 68 455 -20 98 -83 216 -157 295 -82 86
-152 133 -257 172 -69 25 -100 31 -192 34 -60 2 -129 -1 -152 -6z m548 -366
c22 -20 33 -71 22 -101 -10 -26 -429 -499 -450 -507 -51 -20 -78 -7 -218 104
-157 123 -178 149 -171 199 6 41 29 67 71 81 44 14 64 5 169 -79 49 -39 92
-70 96 -69 4 2 86 91 181 198 110 122 183 196 199 200 31 8 77 -4 101 -26z"/>
<path d="M1000 1079 c-36 -40 -72 -82 -81 -93 -17 -20 -17 -20 -65 17 -51 40
-75 45 -94 23 -23 -29 -6 -59 64 -113 37 -29 76 -53 86 -53 10 0 61 49 119
116 83 94 102 121 99 142 -2 22 -9 28 -34 30 -26 3 -38 -6 -94 -69z"/>
<path d="M1232 1028 c-16 -16 -16 -100 0 -116 17 -17 499 -17 516 0 16 16 16
100 0 116 -17 17 -499 17 -516 0z"/>
</g>
</svg>
