<?xml version="1.0" standalone="no"?>
<!DOCTYPE svg PUBLIC "-//W3C//DTD SVG 20010904//EN"
 "http://www.w3.org/TR/2001/REC-SVG-20010904/DTD/svg10.dtd">
<svg version="1.0" xmlns="http://www.w3.org/2000/svg"
 width="300.000000pt" height="300.000000pt" viewBox="0 0 300.000000 300.000000"
 preserveAspectRatio="xMidYMid meet">
<metadata>
Created by potrace 1.10, written by Peter Selinger 2001-2011
</metadata>
<g transform="translate(0.000000,300.000000) scale(0.100000,-0.100000)"
fill="#000000" stroke="none">
<path d="M1315 2959 c-311 -39 -600 -178 -830 -400 -160 -154 -258 -296 -338
-486 -196 -470 -144 -978 146 -1413 76 -114 271 -304 396 -386 433 -283 985
-321 1446 -99 154 74 269 157 401 289 132 132 215 247 289 401 222 461 184
1013 -99 1446 -121 183 -326 371 -526 481 -257 142 -588 204 -885 167z m405
-34 c469 -69 896 -396 1092 -835 97 -218 129 -382 123 -630 -5 -230 -39 -376
-135 -576 -89 -186 -220 -356 -370 -481 -95 -80 -91 -77 -174 -127 -180 -110
-326 -164 -541 -201 -166 -29 -444 -13 -583 34 -34 12 -66 21 -72 21 -7 0 -42
12 -78 26 -495 194 -842 639 -913 1172 -14 110 -7 331 15 442 116 596 606
1068 1199 1154 92 14 347 14 437 1z"/>
<path d="M1315 2840 c-228 -32 -479 -138 -624 -262 -27 -24 -71 -59 -97 -78
-26 -19 -69 -62 -95 -95 -26 -33 -63 -78 -82 -100 -100 -117 -200 -339 -243
-536 -8 -41 -18 -135 -21 -209 -11 -268 43 -498 171 -725 155 -277 419 -499
721 -608 392 -141 842 -88 1190 139 105 69 222 169 241 207 14 27 14 31 0 45
-12 12 -43 16 -153 16 -76 1 -156 0 -178 -2 -38 -2 -681 3 -718 6 -16 2 -17
12 -15 110 l3 107 350 5 c376 5 739 -1 751 -12 3 -4 8 -29 10 -55 2 -26 7 -59
11 -73 6 -23 7 -21 14 15 4 22 8 66 8 98 l1 57 -215 0 -215 0 0 659 0 659 -35
31 c-25 22 -46 31 -70 31 -34 0 -35 1 -35 39 0 32 -6 44 -35 70 -25 22 -46 31
-70 31 -34 0 -35 1 -35 38 -1 42 -25 77 -65 92 -16 6 -224 10 -558 11 -603 0
-557 -10 -400 86 102 62 260 126 386 156 126 29 431 31 552 4 482 -109 841
-432 994 -894 43 -128 59 -238 59 -403 0 -165 -16 -275 -59 -405 -30 -89 -96
-237 -129 -285 -57 -84 -72 -111 -67 -117 14 -13 80 77 133 179 106 208 156
417 153 639 -5 428 -195 809 -528 1063 -154 118 -387 224 -551 251 -25 4 -54
9 -65 12 -41 9 -332 12 -390 3z m486 -349 c17 -17 29 -40 29 -55 l0 -26 -586
0 -586 0 -34 -34 -34 -34 0 -796 c0 -796 0 -796 -20 -796 -29 0 -76 26 -84 45
-3 9 -6 362 -6 785 l0 768 86 86 86 86 560 0 560 0 29 -29z m133 -133 c15 -13
29 -38 32 -55 l7 -33 -577 0 c-492 0 -581 -2 -606 -15 -64 -33 -60 19 -60
-854 l0 -794 -37 6 c-78 13 -73 -52 -73 884 l0 834 25 24 24 25 620 0 620 0
25 -22z m-1466 -1585 c15 -28 62 -53 97 -53 22 0 25 -4 25 -33 0 -59 63 -114
115 -101 23 6 25 4 25 -30 0 -44 23 -82 61 -102 43 -22 1236 -21 1284 1 39 19
54 46 57 105 l3 45 175 2 175 2 -60 -55 c-193 -179 -396 -289 -636 -346 -81
-19 -122 -22 -289 -22 -225 0 -304 14 -483 84 -437 171 -753 567 -826 1035
-14 89 -11 328 5 420 30 169 94 335 190 486 l59 94 5 -755 c4 -588 8 -760 18
-777z m1609 1443 l27 -24 1 -651 0 -651 -348 0 -348 0 -97 -34 c-53 -19 -142
-51 -197 -70 -55 -20 -102 -36 -105 -36 -6 -1 134 -53 282 -106 l97 -34 362 0
362 0 -7 -47 c-4 -34 -13 -55 -32 -71 l-26 -22 -625 2 -625 3 -19 24 c-18 22
-19 51 -19 853 0 568 3 836 11 849 6 11 20 24 32 29 12 5 297 9 634 9 l612 1
28 -24z m-700 -1572 c-2 -2 -49 12 -105 32 l-102 37 0 34 c0 23 5 35 18 39 9
3 55 20 102 38 l85 32 3 -104 c1 -58 1 -106 -1 -108z"/>
<path d="M872 1828 l3 -263 260 0 c224 0 260 2 260 15 0 13 -34 15 -245 15
l-245 0 -1 245 c-1 220 -3 245 -18 248 -15 3 -16 -18 -14 -260z"/>
<path d="M1101 2076 c-8 -9 -11 -79 -9 -232 l3 -219 59 -3 c41 -2 62 1 67 10
14 22 11 432 -3 446 -17 17 -103 15 -117 -2z m89 -223 l0 -203 -32 0 -33 0 3
202 3 203 29 0 30 0 0 -202z"/>
<path d="M1477 2083 c-4 -3 -7 -12 -7 -20 0 -10 50 -13 258 -13 142 0 261 3
265 6 3 3 3 12 0 20 -4 11 -50 14 -257 14 -139 0 -256 -3 -259 -7z"/>
<path d="M1271 1976 c-8 -9 -11 -66 -9 -182 l3 -169 53 -3 c82 -5 82 -4 82
179 0 130 -3 160 -16 173 -19 20 -97 21 -113 2z m89 -176 l0 -150 -35 0 -35 0
0 150 0 150 35 0 35 0 0 -150z"/>
<path d="M1474 1921 c-2 -2 -4 -10 -4 -18 0 -10 50 -13 260 -13 241 0 260 1
260 18 0 16 -19 17 -256 17 -141 0 -258 -2 -260 -4z"/>
<path d="M936 1874 c-13 -12 -16 -38 -16 -119 0 -57 3 -110 6 -119 9 -23 119
-23 128 0 11 30 7 229 -6 242 -18 18 -94 15 -112 -4z m89 -124 l0 -100 -32 0
-33 0 0 100 0 100 33 0 32 0 0 -100z"/>
<path d="M1512 1762 c-33 -2 -42 -7 -40 -19 3 -14 34 -16 256 -16 166 -1 256
3 263 10 8 8 7 13 -1 18 -11 7 -399 13 -478 7z"/>
<path d="M1470 1580 c0 -19 7 -20 260 -20 253 0 260 1 260 20 0 19 -7 20 -260
20 -253 0 -260 -1 -260 -20z"/>
<path d="M910 1517 c-35 -18 -48 -61 -29 -95 20 -37 55 -53 87 -41 56 21 69
83 27 124 -27 28 -48 31 -85 12z m54 -33 c21 -8 21 -48 0 -65 -31 -26 -70 25
-44 56 14 17 21 18 44 9z"/>
<path d="M1060 1450 c0 -20 7 -20 463 -20 255 0 466 3 470 6 3 3 3 12 0 20 -4
12 -80 14 -469 14 -457 0 -464 0 -464 -20z"/>
<path d="M895 1295 c-14 -13 -25 -36 -25 -50 0 -33 41 -75 73 -75 40 0 77 36
77 75 0 24 -7 39 -26 54 -35 28 -69 26 -99 -4z m80 -50 c0 -27 -3 -30 -30 -30
-21 0 -31 5 -33 18 -6 33 6 49 35 45 24 -3 28 -8 28 -33z"/>
<path d="M1063 1255 c-3 -9 -3 -18 -1 -21 7 -7 918 -5 930 2 5 3 4 12 -3 20
-10 12 -87 14 -466 14 -400 0 -454 -2 -460 -15z"/>
<path d="M921 1109 c-67 -26 -69 -111 -2 -139 59 -24 117 34 95 97 -11 33 -59
54 -93 42z m47 -41 c17 -17 15 -43 -4 -59 -31 -26 -70 25 -44 56 15 18 32 19
48 3z"/>
<path d="M1060 1040 c0 -20 7 -20 465 -20 458 0 465 0 465 20 0 20 -7 20 -465
20 -458 0 -465 0 -465 -20z"/>
</g>
</svg>
