<?xml version="1.0" standalone="no"?>
<!DOCTYPE svg PUBLIC "-//W3C//DTD SVG 20010904//EN"
 "http://www.w3.org/TR/2001/REC-SVG-20010904/DTD/svg10.dtd">
<svg version="1.0" xmlns="http://www.w3.org/2000/svg"
 width="360.000000pt" height="360.000000pt" viewBox="0 0 360.000000 360.000000"
 preserveAspectRatio="xMidYMid meet">
<metadata>
Created by potrace 1.16, written by Peter Selinger 2001-2019
</metadata>
<g transform="translate(0.000000,360.000000) scale(0.100000,-0.100000)"
fill="#000000" stroke="none">
<path d="M1885 2838 c-225 -269 -424 -506 -442 -527 l-32 -38 160 -89 c97 -54
174 -104 194 -126 87 -95 61 -249 -53 -315 -72 -42 -123 -38 -326 30 -123 41
-164 51 -150 38 44 -43 607 -511 614 -511 4 0 187 215 408 477 220 263 486
580 590 704 l190 226 -348 292 c-191 160 -359 300 -371 310 l-24 18 -410 -489z
m313 -252 c119 -60 186 -168 186 -296 1 -94 -25 -151 -96 -215 -150 -135 -394
-77 -495 117 -23 45 -27 65 -28 138 0 76 3 91 30 139 57 104 150 153 275 148
57 -3 88 -10 128 -31z"/>
<path d="M1990 2494 c-14 -10 -28 -22 -32 -28 -4 -6 -14 -3 -27 8 -20 18 -21
18 -45 -10 -24 -28 -24 -30 -7 -49 13 -14 17 -31 14 -58 -7 -48 11 -89 46
-110 40 -23 70 -21 125 8 57 30 86 32 86 6 0 -21 -65 -81 -87 -81 -19 0 -16
-11 16 -50 l29 -34 41 28 c39 27 42 28 59 12 17 -15 20 -14 40 7 26 27 27 40
7 57 -11 9 -13 25 -9 64 6 49 4 55 -26 89 -27 31 -38 37 -73 37 -24 0 -62 -11
-93 -27 -42 -21 -57 -24 -66 -15 -9 9 -5 19 17 42 16 16 37 32 47 36 24 7 23
14 -9 52 -28 32 -28 33 -53 16z"/>
<path d="M1155 2813 c-11 -3 -120 -34 -243 -69 -122 -35 -238 -64 -257 -64
l-35 0 0 -311 c0 -291 1 -310 18 -305 77 24 212 56 235 56 21 0 46 -17 100
-69 40 -37 83 -73 95 -80 45 -24 518 -171 551 -171 51 0 111 63 111 117 0 72
-25 94 -264 228 -120 67 -222 129 -227 136 -5 8 -9 28 -9 45 0 47 29 67 110
73 l70 6 145 173 c81 96 145 175 143 176 -2 1 -88 17 -193 35 -173 29 -296 37
-350 24z"/>
<path d="M345 2693 c4 -38 21 -223 38 -413 l32 -345 58 -3 57 -3 0 414 0 414
-96 1 -95 2 6 -67z"/>
<path d="M1169 1265 c-51 -28 -77 -95 -59 -151 8 -24 47 -65 133 -141 67 -60
155 -139 197 -177 95 -87 202 -158 282 -187 60 -21 82 -23 413 -28 390 -7 384
-6 451 -79 l33 -36 342 31 c188 18 343 34 346 36 7 8 -126 338 -177 436 -86
168 -181 251 -318 280 -33 7 -186 11 -413 11 -397 0 -403 -1 -435 -62 -25 -48
-13 -106 30 -145 l36 -33 179 0 c150 0 182 -3 195 -16 20 -20 20 -29 0 -49
-15 -15 -49 -16 -308 -13 -259 3 -296 5 -336 22 -25 11 -135 81 -245 156 -110
75 -210 142 -222 148 -29 16 -92 14 -124 -3z"/>
<path d="M2995 409 c-214 -21 -398 -38 -407 -38 -15 -1 -18 -11 -18 -60 l0
-59 413 1 412 2 3 89 c2 49 -1 92 -5 96 -4 3 -183 -11 -398 -31z"/>
</g>
</svg>
