<?xml version="1.0" standalone="no"?>
<!DOCTYPE svg PUBLIC "-//W3C//DTD SVG 20010904//EN"
 "http://www.w3.org/TR/2001/REC-SVG-20010904/DTD/svg10.dtd">
<svg version="1.0" xmlns="http://www.w3.org/2000/svg"
 width="300.000000pt" height="300.000000pt" viewBox="0 0 300.000000 300.000000"
 preserveAspectRatio="xMidYMid meet">
<metadata>
Created by potrace 1.16, written by Peter Selinger 2001-2019
</metadata>
<g transform="translate(0.000000,300.000000) scale(0.100000,-0.100000)"
fill="#000000" stroke="none">
<path d="M174 2890 c-11 -4 -33 -22 -47 -40 l-27 -32 0 -1066 0 -1067 293
-293 293 -293 722 3 722 3 30 30 c16 17 31 41 32 55 l3 25 -697 3 -698 2 0
251 0 251 -39 39 -39 39 -251 0 -251 0 -1 103 c-5 329 -3 1870 1 1878 4 5 366
8 936 7 l929 -3 3 -582 2 -583 55 0 55 0 0 596 c0 655 2 631 -60 668 -26 14
-117 16 -987 15 -527 0 -967 -4 -979 -9z"/>
<path d="M1850 2200 l0 -351 58 3 57 3 3 348 2 347 -60 0 -60 0 0 -350z"/>
<path d="M533 2510 c-92 -46 -157 -125 -188 -228 l-7 -23 144 3 143 3 3 115
c3 126 -2 160 -22 160 -7 0 -40 -14 -73 -30z"/>
<path d="M750 2382 l0 -157 108 -108 c59 -59 110 -107 114 -107 3 0 16 21 29
48 19 39 23 64 23 142 1 109 -16 156 -85 233 -37 42 -143 107 -176 107 -10 0
-13 -33 -13 -158z"/>
<path d="M1620 2140 l0 -290 55 0 55 0 0 290 0 290 -55 0 -55 0 0 -290z"/>
<path d="M1390 2025 l0 -175 55 0 55 0 0 175 0 175 -55 0 -55 0 0 -175z"/>
<path d="M345 2118 c30 -103 105 -191 202 -235 74 -34 182 -36 265 -4 32 12
60 27 63 32 4 5 -42 59 -101 119 l-107 110 -164 0 -164 0 6 -22z"/>
<path d="M1150 1965 l0 -116 58 3 57 3 3 113 3 112 -61 0 -60 0 0 -115z"/>
<path d="M450 1445 l0 -55 410 0 410 0 0 55 0 55 -410 0 -410 0 0 -55z"/>
<path d="M1936 1485 c-94 -24 -182 -72 -251 -136 -124 -116 -178 -239 -179
-404 0 -165 47 -277 164 -395 91 -93 173 -135 297 -157 107 -18 213 -6 311 35
l67 29 175 -172 c153 -151 181 -173 216 -179 97 -17 177 65 159 162 -6 30 -37
67 -180 212 l-172 175 24 52 c28 61 53 169 53 233 0 73 -27 180 -64 255 -61
124 -190 233 -325 276 -86 27 -217 33 -295 14z m296 -162 c93 -44 160 -110
205 -201 37 -74 38 -79 38 -181 -1 -97 -3 -111 -32 -173 -97 -207 -323 -297
-540 -217 -83 31 -201 149 -233 234 -73 195 -1 408 175 514 80 48 134 62 237
57 70 -3 98 -9 150 -33z"/>
<path d="M457 1263 c-4 -3 -7 -30 -7 -60 l0 -53 408 2 407 3 0 55 0 55 -401 3
c-220 1 -403 -1 -407 -5z"/>
<path d="M450 975 l0 -55 408 2 407 3 3 53 3 52 -410 0 -411 0 0 -55z"/>
</g>
</svg>
